<?xml version="1.0" standalone="no"?>
<!DOCTYPE svg PUBLIC "-//W3C//DTD SVG 20010904//EN"
 "http://www.w3.org/TR/2001/REC-SVG-20010904/DTD/svg10.dtd">
<svg version="1.0" xmlns="http://www.w3.org/2000/svg"
 width="832.000000pt" height="832.000000pt" viewBox="0 0 832.000000 832.000000"
 preserveAspectRatio="xMidYMid meet">
<metadata>
Created by potrace 1.14, written by Peter Selinger 2001-2017
</metadata>
<g transform="translate(0.000000,832.000000) scale(0.100000,-0.100000)"
fill="#000000" stroke="none">
<path d="M3705 7676 c-16 -13 -178 -128 -360 -256 -335 -236 -812 -580 -1142
-822 -598 -439 -708 -544 -828 -787 -100 -202 -125 -347 -125 -728 l0 -270
-158 -12 c-260 -20 -374 -54 -509 -154 -286 -212 -373 -658 -197 -1011 48 -95
88 -151 160 -223 49 -50 68 -63 93 -63 38 0 54 23 85 123 30 96 63 152 121
206 99 91 255 130 378 95 16 -5 17 -37 17 -495 0 -398 -3 -504 -15 -563 -34
-164 -110 -295 -251 -433 -52 -50 -94 -98 -94 -107 0 -8 15 -31 34 -50 60 -64
44 -69 653 186 446 187 743 546 828 1004 15 79 17 233 19 1519 1 1337 2 1434
19 1489 26 87 76 180 133 250 54 65 155 143 173 132 14 -9 15 -4577 1 -4716
-12 -118 -46 -260 -75 -320 -68 -135 -208 -209 -375 -197 -129 10 -211 38
-469 159 -357 168 -410 183 -641 183 -129 0 -169 -4 -242 -23 -206 -54 -349
-142 -534 -326 -175 -175 -285 -353 -358 -579 -44 -132 -52 -183 -35 -213 20
-39 52 -30 125 36 190 173 431 259 689 247 156 -7 243 -31 425 -117 235 -110
479 -192 655 -221 161 -26 338 6 500 89 124 63 271 209 332 327 66 129 118
289 159 495 16 76 18 198 23 1147 6 1002 7 1063 24 1080 16 16 48 18 370 21
194 2 367 0 385 -3 65 -12 63 29 60 -1023 l-3 -947 -23 -45 c-12 -25 -99 -133
-193 -240 -167 -190 -234 -286 -207 -294 7 -3 63 -9 123 -16 354 -36 679 -116
913 -226 158 -73 309 -175 456 -307 l58 -52 47 51 c25 28 153 190 283 360 130
170 278 359 328 419 155 187 156 201 10 308 -86 63 -80 -17 -80 1025 l0 923
25 24 24 25 396 0 395 0 0 -933 c0 -587 4 -964 10 -1017 36 -290 158 -572 323
-746 190 -201 421 -340 692 -419 92 -26 119 -26 161 2 22 14 204 266 647 895
92 130 167 245 167 256 0 12 -9 22 -22 26 -50 13 -95 5 -164 -30 -113 -57
-227 -51 -337 19 -87 55 -185 207 -224 348 -17 60 -18 188 -18 2169 0 1989 1
2107 18 2140 9 20 90 119 178 220 157 180 237 286 225 297 -3 4 -73 26 -155
49 -438 127 -884 342 -1244 601 l-88 63 -494 -350 c-272 -193 -501 -353 -509
-356 -14 -5 -16 23 -18 233 l-3 238 -63 3 c-37 2 -69 -2 -77 -8 -11 -9 -14
-73 -17 -298 -3 -252 -5 -291 -21 -319 -23 -43 -70 -67 -115 -60 -32 6 -384
190 -572 300 -170 100 -320 207 -698 499 -84 65 -153 118 -155 118 -1 0 -15
-11 -32 -24z m-439 -1113 c49 -33 159 -104 244 -158 85 -55 167 -112 183 -128
l27 -29 0 -719 0 -719 -375 0 -376 0 -24 25 -25 24 0 986 0 986 129 -105 c70
-57 168 -130 217 -163z m2594 67 c146 -99 260 -168 295 -180 76 -26 110 -52
129 -100 14 -36 16 -124 16 -790 l0 -750 -389 0 c-424 0 -409 -2 -431 56 -5
13 -10 415 -10 895 l-2 871 24 47 c15 30 41 57 72 79 27 17 50 32 53 32 2 0
112 -72 243 -160z m-565 -4688 c-9 -9 -281 90 -302 110 l-23 21 0 2096 c0
2016 1 2098 19 2136 23 50 38 64 186 167 l120 85 3 -2305 c1 -1268 0 -2307 -3
-2310z"/>
</g>
</svg>
